<?xml version="1.0" standalone="no"?>
<!DOCTYPE svg PUBLIC "-//W3C//DTD SVG 20010904//EN"
 "http://www.w3.org/TR/2001/REC-SVG-20010904/DTD/svg10.dtd">
<svg version="1.0" xmlns="http://www.w3.org/2000/svg"
 width="429.000000pt" height="269.000000pt" viewBox="0 0 429.000000 269.000000"
 preserveAspectRatio="xMidYMid meet">
<metadata>
Created by potrace 1.16, written by Peter Selinger 2001-2019
</metadata>
<g transform="translate(0.000000,269.000000) scale(0.100000,-0.100000)"
fill="#fff" stroke="none">
<path d="M1092 2143 c-18 -9 -40 -29 -48 -44 -8 -15 -44 -131 -80 -256 -60
-206 -95 -327 -199 -683 -38 -130 -143 -486 -151 -512 -5 -17 10 -18 219 -18
l224 0 40 143 c129 448 195 671 201 681 3 6 12 -23 18 -64 6 -41 25 -171 43
-289 17 -118 40 -268 51 -335 11 -67 20 -124 20 -128 0 -5 126 -8 279 -8 l279
0 20 62 c19 59 42 138 122 413 73 252 103 353 120 410 10 33 26 89 36 125 9
36 22 71 27 78 8 11 84 13 376 11 l366 -2 9 25 9 25 84 -55 c46 -30 82 -56 81
-57 -5 -4 -201 -105 -204 -105 -1 0 -4 12 -6 28 l-3 27 -319 0 -319 0 -34
-115 c-19 -63 -45 -151 -58 -195 -49 -169 -138 -464 -166 -553 -16 -51 -29
-99 -29 -107 0 -13 32 -15 223 -15 l224 0 52 178 c29 97 67 221 83 275 l31 97
203 0 c230 0 281 8 377 58 85 44 188 152 235 245 52 104 68 199 54 332 -16
159 -56 256 -129 312 l-36 28 -712 3 -711 3 -53 -183 c-28 -101 -65 -228 -82
-283 -16 -55 -45 -156 -65 -225 -20 -69 -39 -131 -43 -138 -4 -7 -17 52 -29
130 -33 221 -80 525 -94 613 l-13 80 -245 2 c-210 2 -250 0 -278 -14z"/>
</g>
</svg>
